<?xml version="1.0" encoding="utf-8"?>
<!-- Generator: Adobe Illustrator 25.2.3, SVG Export Plug-In . SVG Version: 6.00 Build 0)  -->
<svg version="1.1" id="Layer_1" xmlns="http://www.w3.org/2000/svg" xmlns:xlink="http://www.w3.org/1999/xlink" x="0px" y="0px"
	 viewBox="0 0 200 200" style="enable-background:new 0 0 200 200;" xml:space="preserve">
<style type="text/css">
	.st0{fill:#1B8FCB;}
	.st1{fill:#444545;}
</style>
<g>
	<path class="st0" d="M46.41,38.08h69V60.6H74.7v17.9h30.03v21.51H74.7v39.84H46.41V38.08z"/>
</g>
<g>
	<path class="st1" d="M124.93,45.73h28.29v67.41c0,23.39-13.57,35.37-34.93,35.37c-22.38,0-37.97-12.7-37.97-37.53h28.01
		c0.14,8.81,3.61,11.98,8.81,11.98c4.76,0,7.8-2.74,7.8-9.82V45.73z"/>
</g>
<g>
	<path class="st0" d="M35.46,111.1h-19.7L0.39,93.65l15.37-17.53h19.7L20.09,93.65L35.46,111.1z"/>
	<path class="st0" d="M180.38,93.65l-15.37-17.53h19.62L200,93.65l-15.37,17.45h-19.62L180.38,93.65z"/>
</g>
</svg>
