<?xml version="1.0" encoding="utf-8"?>
<!-- Generator: Adobe Illustrator 25.2.3, SVG Export Plug-In . SVG Version: 6.00 Build 0)  -->
<svg version="1.1" id="Layer_1" xmlns="http://www.w3.org/2000/svg" xmlns:xlink="http://www.w3.org/1999/xlink" x="0px" y="0px"
	 viewBox="0 0 200 200" style="enable-background:new 0 0 200 200;" xml:space="preserve">
<style type="text/css">
	.st0{fill:#FFFFFF;}
</style>
<g>
	<path class="st0" d="M46.49,40.87h68.96v22.51H74.77v17.89h30.01v21.5H74.77v39.82H46.49V40.87z"/>
</g>
<g>
	<path class="st0" d="M124.97,48.51h28.28v67.38c0,23.37-13.56,35.35-34.91,35.35c-22.36,0-37.95-12.7-37.95-37.51h27.99
		c0.14,8.8,3.61,11.97,8.8,11.97c4.76,0,7.79-2.74,7.79-9.81V48.51z"/>
</g>
<g>
	<path class="st0" d="M35.55,113.85H15.86L0.5,96.4l15.36-17.53h19.69L20.18,96.4L35.55,113.85z"/>
	<path class="st0" d="M180.39,96.4l-15.36-17.53h19.61L200,96.4l-15.36,17.44h-19.61L180.39,96.4z"/>
</g>
</svg>
